<?xml version="1.0" encoding="UTF-8" standalone="no"?>
<!-- Created with Inkscape (http://www.inkscape.org/) -->

<svg
   width="300mm"
   height="65mm"
   viewBox="0 0 300 65"
   version="1.1"
   id="svg1"
   xml:space="preserve"
   inkscape:version="1.3 (0e150ed6c4, 2023-07-21)"
   sodipodi:docname="Logo_PySaaty.svg"
   inkscape:export-filename="img\logo.png"
   inkscape:export-xdpi="96"
   inkscape:export-ydpi="96"
   xmlns:inkscape="http://www.inkscape.org/namespaces/inkscape"
   xmlns:sodipodi="http://sodipodi.sourceforge.net/DTD/sodipodi-0.dtd"
   xmlns="http://www.w3.org/2000/svg"
   xmlns:svg="http://www.w3.org/2000/svg"><sodipodi:namedview
     id="namedview1"
     pagecolor="#ffffff"
     bordercolor="#000000"
     borderopacity="0.25"
     inkscape:showpageshadow="2"
     inkscape:pageopacity="0.0"
     inkscape:pagecheckerboard="0"
     inkscape:deskcolor="#d1d1d1"
     inkscape:document-units="mm"
     showguides="true"
     inkscape:zoom="2.127193"
     inkscape:cx="473.62886"
     inkscape:cy="71.220618"
     inkscape:window-width="3200"
     inkscape:window-height="1261"
     inkscape:window-x="2391"
     inkscape:window-y="-9"
     inkscape:window-maximized="1"
     inkscape:current-layer="g6"><sodipodi:guide
       position="120.14898,-34.003971"
       orientation="0,-1"
       id="guide4"
       inkscape:locked="false" /><sodipodi:guide
       position="121.00617,-57.290881"
       orientation="1,0"
       id="guide5"
       inkscape:locked="false" /></sodipodi:namedview><defs
     id="defs1" /><g
     inkscape:label="Capa 1"
     inkscape:groupmode="layer"
     id="layer1"><g
       id="g6"
       transform="matrix(1.0924894,0,0,1.0924894,-13.87335,-0.36230852)"
       style="stroke-width:0.915341"><path
         id="circle2"
         style="fill:#3570a1;fill-opacity:1;stroke:none;stroke-width:0.242567;stroke-linecap:round"
         d="m 105.24474,2.0365682 c -0.25019,-0.018699 -0.50428,-0.015659 -0.75913,0.00982 -0.29127,0.029012 -0.58343,0.087569 -0.87385,0.1777669 -2.32323,0.7213986 -3.622153,3.1901591 -2.90059,5.5133586 0.72131,2.3230083 3.18924,3.6212353 5.51232,2.9000823 0.23083,-0.07387 0.45519,-0.166727 0.67076,-0.277503 2.58275,3.725593 8.71994,14.112082 11.30267,17.83767 -1.18796,0.988094 -2.02122,2.336245 -2.37402,3.840593 l -0.16691,1.185974 c -1.13559,-0.05106 -3.83184,-0.136187 -5.0276,-0.188619 0.0151,-3.573951 -1.2055,-7.043408 -3.45509,-9.82059 -5.38864,-6.651053 -15.148892,-7.674111 -21.7997,-2.285131 -6.6505,5.388204 -7.673924,15.147801 -2.286165,21.798669 5.388117,6.650914 15.147638,7.674607 21.798665,2.286682 3.27976,-2.658947 5.33325,-6.540715 5.68493,-10.748181 1.70423,0.07471 3.40868,0.14853 5.11286,0.223242 0.0478,0.430091 0.13161,0.856046 0.25735,1.271757 0.54459,1.733889 1.73321,3.192557 3.32073,4.077271 -7.4e-4,0.0016 -0.001,0.003 -0.002,0.0047 l 0.31678,0.141593 -3.59823,6.28127 c -0.61313,-0.291449 -1.28328,-0.443236 -1.96215,-0.444417 -2.53453,-2.03e-4 -4.5893,2.05434 -4.58939,4.588867 9e-5,2.534528 2.05486,4.58907 4.58939,4.588867 2.53452,1.97e-4 4.58929,-2.054343 4.58938,-4.588867 -0.003,-1.521627 -0.75958,-2.942947 -2.02055,-3.7946 l 3.63441,-6.343799 0.16588,0.0739 c 2.9e-4,-6.5e-4 10e-4,-0.0013 10e-4,-0.0021 1.43431,0.507429 2.99394,0.541121 4.44882,0.09612 0.90304,-0.284646 1.73997,-0.746402 2.46187,-1.35909 2.37189,2.365861 4.74344,4.731541 7.11533,7.097241 0.34477,-0.235948 0.72302,-0.534175 0.99063,-0.752408 -2.40956,-2.402984 -4.81969,-4.805896 -7.22901,-7.208863 0.93303,-1.121284 1.49863,-2.502658 1.61954,-3.956347 4.92955,-0.0064 76.88454,-0.01321 81.81413,-0.01964 0.0314,0.231667 0.0816,0.46043 0.14934,0.684196 0.72134,2.323016 3.18873,3.621756 5.51181,2.900598 2.32335,-0.721084 3.62179,-3.189553 2.9006,-5.512842 -0.72117,-2.323558 -3.18944,-3.622203 -5.51284,-2.900598 -1.62809,0.50706 -2.81728,1.90804 -3.05253,3.597196 l -81.81516,0.01912 c -0.0385,-0.502383 -0.1308,-0.999128 -0.2744,-1.48208 -0.67297,-2.166449 -2.33959,-3.880998 -4.48604,-4.615222 0.67709,-2.73163 1.35384,-5.463691 2.03089,-8.195365 0.13,0.01528 0.26123,0.02401 0.39222,0.02636 2.07125,-1.29e-4 3.74979,-1.588466 3.74964,-3.547587 1.5e-4,-1.959121 -1.67839,-3.547458 -3.74964,-3.547587 -2.07148,-1.8e-4 -3.75082,1.588248 -3.75067,3.547587 6.1e-4,1.378572 0.84509,2.632174 2.16627,3.214274 -0.67798,2.735372 -1.35545,5.470802 -2.03347,8.206217 -1.07457,-0.169693 -2.17414,-0.09072 -3.21324,0.231511 -0.49216,0.159084 -0.96522,0.371723 -1.41128,0.633553 -2.58323,-3.726377 -8.72108,-14.113437 -11.30422,-17.8397377 1.24618,-1.1510273 1.72048,-2.9153964 1.21957,-4.5361572 C 108.57246,3.346289 106.99609,2.16736 105.24474,2.0365682 Z m -0.0878,1.1833903 c 1.27994,0.09566 2.43187,0.9565914 2.83548,2.2567098 0.52724,1.6981041 -0.42215,3.502529 -2.12028,4.0297282 -1.69811,0.5272325 -3.502,-0.4226947 -4.02921,-2.1208008 -0.52724,-1.6981041 0.42215,-3.5014944 2.12028,-4.0286947 0.21226,-0.065906 0.42637,-0.1090396 0.63924,-0.1302246 0.18626,-0.018531 0.37165,-0.020353 0.55449,-0.00672 z m 22.29425,9.2692015 c 1.59319,2.5e-5 2.88452,1.22051 2.88457,2.726449 -5e-5,1.505938 -1.29138,2.72694 -2.88457,2.726965 -1.5932,-2.5e-5 -2.88454,-1.221027 -2.88458,-2.726965 4e-5,-1.505939 1.29138,-2.726424 2.88458,-2.726449 z m -32.206308,7.018693 c 3.879811,0.03482 7.714708,1.737405 10.348208,4.987293 0.87797,1.083486 1.55932,2.261705 2.05,3.492293 2.12636,5.332642 0.65927,11.644436 -4.03644,15.448153 -5.778808,4.681758 -14.25885,3.792421 -18.939933,-1.986959 -4.680277,-5.778499 -3.790543,-14.257514 1.987475,-18.938379 2.527819,-2.048136 5.573056,-3.029495 8.59069,-3.002401 z m 27.905788,8.4646 c 2.26494,0.169133 4.30359,1.692426 5.01778,3.993038 0.93306,3.004801 -0.74683,6.197505 -3.7517,7.130314 -3.0047,0.932663 -6.19654,-0.747565 -7.12929,-3.752226 -0.93297,-3.004577 0.74662,-6.19675 3.7512,-7.129797 0.37561,-0.116646 0.75401,-0.191934 1.13068,-0.229444 0.3296,-0.03281 0.65777,-0.03605 0.98133,-0.01188 z m 93.05117,2.436027 v 5.17e-4 c 1.27994,0.09565 2.43185,0.956591 2.83549,2.256709 0.52725,1.698108 -0.42164,3.502012 -2.11977,4.029212 -1.69811,0.527232 -3.50204,-0.422178 -4.02921,-2.120284 -0.52724,-1.698099 0.42165,-3.501492 2.11976,-4.028695 0.21227,-0.0659 0.42636,-0.109551 0.63924,-0.130741 0.18627,-0.01848 0.37165,-0.0202 0.55449,-0.0067 z M 114.01578,46.769755 c 2.01113,1.3e-5 3.64139,1.630508 3.64112,3.641638 -10e-6,2.010928 -1.63019,3.641109 -3.64112,3.641122 -2.01073,-2.95e-4 -3.6406,-1.630393 -3.64061,-3.641122 -2.7e-4,-2.010931 1.62968,-3.641343 3.64061,-3.641638 z" /><g
         id="g3"
         transform="matrix(1.3199496,0.03434822,-0.03434822,1.3199496,7.5116936,-129.32063)"
         style="stroke-width:0.693228"
         inkscape:transform-center-x="0.3819355"
         inkscape:transform-center-y="-0.13289135"><g
           id="g4"
           transform="matrix(0.4129402,0,0,0.4129402,-19.571388,61.682607)"
           style="stroke-width:1.67877"><g
             id="g12"
             transform="matrix(0.47661731,0,0,0.47661731,159.0364,92.333309)"
             style="stroke-width:3.52224"><path
               style="fill:#fecf45;stroke-width:3.52224"
               d="m 112.70867,146.44806 c -1.16416,-0.21692 -3.12869,-0.70027 -4.36562,-1.07412 -1.23693,-0.37385 -3.06188,-1.10489 -4.05545,-1.62452 -0.99357,-0.51963 -2.34122,-1.46449 -2.99479,-2.09968 -0.65357,-0.6352 -1.50752,-1.83598 -1.89768,-2.66841 -0.70937,-1.51351 -0.70937,-1.51351 -0.70937,-12.49371 0,-10.87267 0.006,-10.9951 0.61399,-12.50068 0.34583,-0.8564 1.19267,-2.15363 1.93895,-2.97018 0.8664,-0.94799 1.93361,-1.74952 3.08366,-2.31599 1.75871,-0.86627 1.75871,-0.86627 14.06834,-1.01558 8.92878,-0.1083 12.60031,-0.24252 13.36797,-0.48872 0.58209,-0.18668 1.74667,-0.70361 2.58796,-1.14874 0.86342,-0.45683 2.18864,-1.51554 3.04271,-2.4308 0.8322,-0.89181 1.8267,-2.27223 2.21001,-3.06758 0.38331,-0.795358 0.8298,-2.077042 0.99219,-2.848189 0.16239,-0.771147 0.29526,-3.552627 0.29526,-6.181066 0,-4.77898 0,-4.77898 4.69635,-4.649015 2.583,0.07148 5.1347,0.2667 5.67045,0.433819 0.53575,0.16712 1.54779,0.699061 2.24896,1.182092 0.71775,0.494448 1.75024,1.587479 2.36267,2.501216 0.5983,0.892637 1.39348,2.54791 1.76706,3.678383 0.37359,1.130474 0.93706,3.246031 1.25216,4.70124 0.37756,1.74365 0.62018,4.00947 0.71155,6.64496 0.10731,3.09538 0.0408,4.48207 -0.29437,6.13613 -0.23816,1.17535 -0.74183,3.06668 -1.11927,4.20295 -0.37745,1.13628 -1.16163,2.98722 -1.74265,4.1132 -0.58101,1.12598 -1.53128,2.53659 -2.11172,3.13469 -0.58044,0.5981 -1.60973,1.34372 -2.28733,1.65693 -1.21265,0.56053 -1.48638,0.57063 -17.43771,0.64341 -16.20573,0.0739 -16.20573,0.0739 -16.20573,1.25678 0,1.18282 0,1.18282 9.92187,1.18282 9.92188,0 9.92188,0 9.92188,4.72024 0,4.72024 0,4.72024 -0.81184,6.34486 -0.4465,0.89354 -1.28538,2.02996 -1.86416,2.52538 -0.57878,0.49541 -1.75826,1.27701 -2.62106,1.73688 -0.8628,0.45986 -2.25634,1.074 -3.09677,1.36473 -0.84043,0.29074 -2.59961,0.77909 -3.9093,1.08522 -1.78277,0.41671 -3.47847,0.57781 -6.74687,0.64102 -3.06867,0.0593 -4.99446,-0.0328 -6.4823,-0.30997 z m 19.30169,-6.75545 c 0.53758,-0.472 1.04346,-1.23348 1.19615,-1.80053 0.17105,-0.63524 0.17519,-1.29432 0.0117,-1.86437 -0.13908,-0.48497 -0.46457,-1.11567 -0.72329,-1.40156 -0.25873,-0.28588 -0.7922,-0.6862 -1.1855,-0.88958 -0.3933,-0.20338 -1.14364,-0.36979 -1.66741,-0.36979 -0.52378,0 -1.30886,0.18438 -1.74463,0.40972 -0.43578,0.22535 -1.02473,0.7909 -1.30879,1.25677 -0.28729,0.47117 -0.51519,1.31669 -0.51357,1.90539 0.002,0.58208 0.15172,1.35241 0.3336,1.71185 0.18187,0.35943 0.73351,0.92498 1.22585,1.25677 0.6241,0.42058 1.28112,0.60325 2.16975,0.60325 1.04729,0 1.44071,-0.14586 2.20614,-0.81792 z"
               id="path4"
               sodipodi:nodetypes="ssssssssssssssssssssssssssssssssssssssssssssssscssss" /><path
               style="fill:#3570a1;stroke-width:3.52224"
               d="m 86.628521,125.59667 c -0.665125,-0.17934 -1.754678,-0.64567 -2.421229,-1.03629 -0.666551,-0.39063 -1.704126,-1.26942 -2.305722,-1.95286 -0.601596,-0.68345 -1.437608,-1.96526 -1.857804,-2.84846 -0.420196,-0.8832 -1.006126,-2.55831 -1.302065,-3.72248 -0.295939,-1.16417 -0.72138,-3.24776 -0.945424,-4.63021 -0.224043,-1.38245 -0.407351,-3.64463 -0.407351,-5.02708 0,-1.38245 0.181296,-3.64464 0.402881,-5.02709 0.221585,-1.382443 0.64448,-3.402325 0.939766,-4.488622 0.295287,-1.086297 0.916467,-2.687255 1.380402,-3.557685 0.463935,-0.870431 1.40813,-2.147214 2.098213,-2.837297 0.711833,-0.711832 2.086233,-1.659978 3.17659,-2.191406 1.062807,-0.518001 2.690642,-1.056588 3.641687,-1.204891 0.997879,-0.155607 7.52286,-0.269019 15.544275,-0.270179 13.82448,-0.002 13.82448,-0.002 13.82448,-1.192624 0,-1.190625 0,-1.190625 -9.95277,-1.190625 -9.95277,0 -9.95277,0 -9.82447,-5.22552 0.10064,-4.098943 0.22952,-5.504603 0.59779,-6.520018 0.25821,-0.711973 0.92381,-1.74883 1.47911,-2.304126 0.5553,-0.555296 1.50812,-1.263942 2.11739,-1.574768 0.60927,-0.310827 2.19179,-0.840037 3.51671,-1.176022 1.32492,-0.335986 3.82801,-0.757106 5.56243,-0.935822 1.99123,-0.205179 5.11173,-0.272667 8.46667,-0.18311 3.12428,0.0834 6.29419,0.319741 7.69443,0.573681 1.30969,0.237519 3.1264,0.778877 4.03715,1.203017 0.91075,0.424141 2.32268,1.401781 3.13764,2.172533 0.81496,0.770753 1.79621,1.996924 2.18056,2.724824 0.69881,1.323457 0.69881,1.323457 0.69881,13.097415 0,11.773958 0,11.773958 -0.70648,13.281156 -0.38857,0.828959 -1.25814,2.058849 -1.93239,2.733099 -0.67424,0.67424 -1.86594,1.51892 -2.64822,1.87706 -0.78228,0.35814 -2.11537,0.76467 -2.96241,0.90339 -0.84704,0.13873 -6.4298,0.25292 -12.40612,0.25376 -9.16112,0.001 -11.09152,0.0677 -12.30313,0.42314 -0.79039,0.23188 -2.03345,0.75997 -2.76234,1.17353 -0.72889,0.41357 -1.95642,1.38471 -2.72784,2.15809 -0.84563,0.84777 -1.79029,2.18827 -2.378913,3.37573 -0.97632,1.96958 -0.97632,1.96958 -1.064832,7.73906 -0.08851,5.76948 -0.08851,5.76948 -4.233333,5.75163 -2.393956,-0.0103 -4.655666,-0.1556 -5.354141,-0.34393 z M 109.34787,78.960964 c 0.33437,-0.215422 0.84701,-0.772161 1.13921,-1.237197 0.39782,-0.633141 0.50388,-1.163368 0.42225,-2.110925 -0.0744,-0.863214 -0.31031,-1.480887 -0.74233,-1.943369 -0.34833,-0.372879 -0.95484,-0.845244 -1.34779,-1.049699 -0.39296,-0.204455 -1.10733,-0.371291 -1.5875,-0.370747 -0.48017,5.44e-4 -1.26108,0.237581 -1.73535,0.526749 -0.47427,0.289167 -1.10588,0.9138 -1.40356,1.388073 -0.39514,0.62953 -0.51052,1.164841 -0.42739,1.982976 0.0626,0.616364 0.31655,1.430013 0.56429,1.808108 0.24774,0.378096 0.94717,0.917047 1.55429,1.19767 0.75036,0.346833 1.4004,0.460558 2.02989,0.355131 0.50932,-0.0853 1.19962,-0.331347 1.53399,-0.54677 z"
               id="path3"
               sodipodi:nodetypes="sssssssssssssssssssssssssssssssssssssssssscssssscssss" /></g></g></g><text
         xml:space="preserve"
         style="font-style:normal;font-variant:normal;font-weight:normal;font-stretch:normal;font-size:28.741px;line-height:1.2;font-family:'Bebas Neue';-inkscape-font-specification:'Bebas Neue';text-decoration-color:#000000;letter-spacing:0px;word-spacing:0px;fill:#3570a1;fill-opacity:1;stroke:none;stroke-width:0.242567;stroke-linecap:round;stroke-dasharray:none;stroke-opacity:1"
         x="135.19626"
         y="30.992886"
         id="text65"
         transform="scale(0.96770855,1.033369)"><tspan
           sodipodi:role="line"
           id="tspan65"
           style="font-style:normal;font-variant:normal;font-weight:normal;font-stretch:normal;font-family:'Bebas Neue';-inkscape-font-specification:'Bebas Neue';letter-spacing:0px;fill:#3570a1;fill-opacity:1;stroke-width:0.242567"
           x="135.19626"
           y="30.992886">PY SAATY</tspan></text><circle
         style="fill:#3570a1;fill-opacity:1;stroke:none;stroke-width:0.242567;stroke-linecap:round"
         id="path2"
         cx="154.14209"
         cy="21.632017"
         r="2.8441048" /><text
         xml:space="preserve"
         style="font-style:normal;font-variant:normal;font-weight:normal;font-stretch:normal;font-size:7.70144px;line-height:1.2;font-family:'Rage Italic';-inkscape-font-specification:'Rage Italic, ';text-decoration-color:#000000;letter-spacing:0px;word-spacing:0px;fill:#3570a1;fill-opacity:1;stroke:none;stroke-width:0.242564;stroke-linecap:round"
         x="154.31218"
         y="40.439022"
         id="text2"
         transform="scale(1.0133056,0.98686912)"><tspan
           sodipodi:role="line"
           id="tspan2"
           style="font-style:normal;font-variant:normal;font-weight:normal;font-stretch:normal;font-family:'Rage Italic';-inkscape-font-specification:'Rage Italic, ';stroke-width:0.242567"
           x="154.31218"
           y="40.439022">By: Julián Giraldo</tspan></text><path
         id="path5"
         style="fill:#3570a1;fill-opacity:1;stroke:none;stroke-width:0.242564;stroke-linecap:round"
         d="m 140.35724,42.762634 a 7.6866226,7.6866226 0 0 0 -7.68687,7.686353 7.6866226,7.6866226 0 0 0 7.68687,7.686869 7.6866226,7.6866226 0 0 0 7.68687,-7.686869 7.6866226,7.6866226 0 0 0 -7.68687,-7.686353 z m 0,0.84336 a 6.8429689,6.8429689 0 0 1 6.84299,6.842993 6.8429689,6.8429689 0 0 1 -6.84299,6.842993 6.8429689,6.8429689 0 0 1 -6.843,-6.842993 6.8429689,6.8429689 0 0 1 6.843,-6.842993 z" /></g></g></svg>
