<?xml version="1.0" encoding="UTF-8" standalone="no"?>
<!-- Created with Inkscape (http://www.inkscape.org/) -->

<svg
   width="50mm"
   height="22mm"
   viewBox="0 0 50 22"
   version="1.1"
   id="svg1"
   xml:space="preserve"
   inkscape:version="1.3 (0e150ed6c4, 2023-07-21)"
   sodipodi:docname="Logo_PySaaty.svg"
   xmlns:inkscape="http://www.inkscape.org/namespaces/inkscape"
   xmlns:sodipodi="http://sodipodi.sourceforge.net/DTD/sodipodi-0.dtd"
   xmlns="http://www.w3.org/2000/svg"
   xmlns:svg="http://www.w3.org/2000/svg"><sodipodi:namedview
     id="namedview1"
     pagecolor="#ffffff"
     bordercolor="#000000"
     borderopacity="0.25"
     inkscape:showpageshadow="2"
     inkscape:pageopacity="0.0"
     inkscape:pagecheckerboard="0"
     inkscape:deskcolor="#d1d1d1"
     inkscape:document-units="mm"
     showguides="true"
     inkscape:zoom="8.421104"
     inkscape:cx="82.352623"
     inkscape:cy="49.459073"
     inkscape:window-width="3200"
     inkscape:window-height="1261"
     inkscape:window-x="2391"
     inkscape:window-y="-9"
     inkscape:window-maximized="1"
     inkscape:current-layer="layer1"><sodipodi:guide
       position="120.14898,-57.00397"
       orientation="0,-1"
       id="guide4"
       inkscape:locked="false" /><sodipodi:guide
       position="121.00617,-80.29088"
       orientation="1,0"
       id="guide5"
       inkscape:locked="false" /></sodipodi:namedview><defs
     id="defs1" /><g
     inkscape:label="Capa 1"
     inkscape:groupmode="layer"
     id="layer1"><g
       id="g2"
       transform="matrix(0.97376363,0,0,0.97376363,0.52139787,-2.4864651)"
       style="stroke-width:1.02694"><path
         id="circle2"
         style="fill:#3570a1;fill-opacity:1;stroke:none;stroke-width:0.272141;stroke-linecap:round"
         d="m 9.1500051,2.9673168 c -0.089377,-0.00668 -0.1800622,-0.00565 -0.2711047,0.00345 -0.1040522,0.010364 -0.2085696,0.031315 -0.3123186,0.063537 -0.8299459,0.2577088 -1.293894,1.1395084 -1.0361312,1.9694365 0.2576838,0.8298596 1.1393402,1.2937495 1.9692238,1.0361279 0.082461,-0.026389 0.1625457,-0.059596 0.2395526,-0.099169 0.922646,1.3309121 3.115189,5.0412618 4.037827,6.3721728 -0.424379,0.352982 -0.722056,0.834653 -0.84809,1.372059 l -0.05967,0.423725 c -0.405671,-0.01824 -1.368832,-0.04867 -1.795999,-0.0674 0.0054,-1.27674 -0.430622,-2.516175 -1.2342538,-3.508281 C 7.9140302,8.1569859 4.4273509,7.7915206 2.0514501,9.7166523 -0.32434148,11.641508 -0.68999871,15.127892 1.234697,17.503815 c 1.9248237,2.375939 5.4111789,2.741723 7.7871628,0.816968 1.1716402,-0.949869 1.9051972,-2.33665 2.0308282,-3.839704 0.608812,0.02669 1.217681,0.05316 1.82648,0.07985 0.01707,0.153643 0.04716,0.305698 0.09208,0.454205 0.194546,0.619406 0.619054,1.140581 1.18617,1.456632 -2.62e-4,5.81e-4 -4.16e-4,0.0011 -8.31e-4,0.0017 l 0.113124,0.05044 -1.285342,2.243978 a 1.6393562,1.6393562 0 0 0 -0.701054,-0.158843 1.6393562,1.6393562 0 0 0 -1.639301,1.639301 1.6393562,1.6393562 0 0 0 1.639301,1.639301 1.6393562,1.6393562 0 0 0 1.639518,-1.639301 1.6393562,1.6393562 0 0 0 -0.721665,-1.35553 l 1.298218,-2.266302 0.05925,0.0264 c 1.04e-4,-2.32e-4 3.37e-4,-3.92e-4 4.16e-4,-6.65e-4 0.512385,0.181271 1.069552,0.193312 1.58929,0.03434 0.322599,-0.101686 0.621542,-0.266671 0.87943,-0.485544 0.984325,0.981825 1.968613,1.963459 2.952975,2.945247 -0.805135,0.87292 -1.085407,2.108207 -0.736045,3.243186 0.546409,1.759235 2.415473,2.742459 4.174777,2.196321 1.759391,-0.546193 2.742807,-2.41513 2.196755,-4.174559 -0.546168,-1.759659 -2.415385,-2.743321 -4.174993,-2.196968 -0.418381,0.132095 -0.806564,0.345295 -1.14238,0.627644 -0.985763,-0.983204 -1.971928,-1.966374 -2.957695,-2.949541 0.333312,-0.400562 0.535293,-0.893963 0.578488,-1.413272 1.761012,-0.0023 27.465849,-0.0048 29.226869,-0.0071 0.01121,0.08276 0.02904,0.164552 0.05324,0.244489 0.257688,0.829863 1.139124,1.29375 1.969008,1.036127 0.829979,-0.257596 1.293977,-1.139261 1.036343,-1.969221 -0.257626,-0.830056 -1.139432,-1.294125 -1.96944,-1.036343 -0.581608,0.18114 -1.006394,0.681699 -1.090434,1.285125 l -29.2273,0.0069 c -0.01375,-0.179469 -0.04658,-0.357021 -0.09788,-0.529548 -0.240408,-0.773932 -0.835811,-1.386455 -1.602594,-1.648746 0.241878,-0.975834 0.483657,-1.9517947 0.725524,-2.9276444 0.04644,0.00546 0.09316,0.00861 0.139953,0.00945 0.739921,-4.6e-5 1.339702,-0.5674416 1.339648,-1.2673082 5.4e-5,-0.6998666 -0.599727,-1.2672625 -1.339648,-1.2673086 -0.740004,-6.44e-5 -1.339914,0.567364 -1.33986,1.2673086 2.16e-4,0.4924746 0.302067,0.9402301 0.774036,1.1481762 -0.242198,0.9771707 -0.484389,1.9543234 -0.7266,2.9315094 -0.38388,-0.06062 -0.776545,-0.03225 -1.147747,0.08286 -0.175817,0.05683 -0.344872,0.132709 -0.504219,0.226244 C 13.215737,10.732877 11.023077,7.0221879 10.10029,5.6910228 10.545471,5.2798356 10.714983,4.6496034 10.536034,4.0706109 10.338788,3.4350972 9.775664,3.0140203 9.1500217,2.9672969 Z M 9.1186441,3.3899676 C 9.5758838,3.4241408 9.9873987,3.7317547 10.131589,4.1962025 10.319938,4.8028247 9.9807112,5.447328 9.3740807,5.635662 8.7674586,5.8240081 8.1231742,5.4847764 7.9348376,4.8781535 7.7464887,4.2715313 8.0854994,3.6272427 8.6921298,3.4389083 c 0.075827,-0.023544 0.1523482,-0.039012 0.2283914,-0.04658 0.066539,-0.00662 0.1328047,-0.00724 0.1981229,-0.00237 z m 7.9642539,3.3112299 c 0.569146,9.1e-6 1.030531,0.436119 1.030548,0.9740929 -1.7e-5,0.5379742 -0.461402,0.9740841 -1.030548,0.9740933 -0.569147,-9.2e-6 -1.030532,-0.4361191 -1.030549,-0.9740933 1.7e-5,-0.5379739 0.461402,-0.9740838 1.030549,-0.9740929 z M 5.5777376,9.2085536 c 1.3860045,0.01244 2.7559667,0.6206407 3.6967438,1.7816144 0.3136394,0.387059 0.5571049,0.807952 0.7323946,1.247561 0.759606,1.905006 0.23544,4.159896 -1.4420346,5.518716 C 6.500452,19.428933 3.4710271,19.111186 1.7987802,17.046589 0.12682203,14.982307 0.44474027,11.95334 2.5088505,10.281171 3.4118756,9.5495053 4.4997334,9.1988746 5.5777376,9.2085536 Z M 15.54663,12.232363 c 0.809111,0.06042 1.537431,0.604721 1.792564,1.42658 0.33332,1.07342 -0.266843,2.213835 -1.340292,2.547067 -1.073382,0.33318 -2.213644,-0.266921 -2.546852,-1.340291 -0.333295,-1.07334 0.266735,-2.213749 1.340075,-2.547066 0.13418,-0.04167 0.269415,-0.0686 0.403976,-0.082 0.117743,-0.01172 0.234942,-0.01293 0.350529,-0.0043 z m 33.241106,0.870415 c 0.457236,0.03417 0.868751,0.341787 1.012945,0.806235 0.188349,0.606623 -0.150661,1.251126 -0.757292,1.43946 -0.606622,0.188346 -1.251135,-0.150886 -1.439459,-0.757509 -0.188345,-0.60662 0.150662,-1.25091 0.757292,-1.439245 0.07583,-0.02354 0.152344,-0.03901 0.228392,-0.04658 0.06654,-0.0066 0.132804,-0.0072 0.198122,-0.0024 z m -26.168714,5.762991 c 1.010182,0.07544 1.91947,0.755072 2.237965,1.781187 0.416063,1.340123 -0.333071,2.763888 -1.673213,3.179864 -1.340001,0.415885 -2.763626,-0.333265 -3.179648,-1.673218 -0.41615,-1.340009 0.332784,-2.763689 1.672785,-3.179863 0.167522,-0.05203 0.336432,-0.08587 0.504435,-0.102603 0.147003,-0.01464 0.293365,-0.01614 0.437676,-0.0054 z m -10.335734,0.08178 a 1.3007414,1.3007414 0 0 1 1.300794,1.300794 1.3007414,1.3007414 0 0 1 -1.300794,1.300794 1.3007414,1.3007414 0 0 1 -1.300581,-1.300794 1.3007414,1.3007414 0 0 1 1.300581,-1.300794 z" /><g
         id="g3"
         transform="matrix(0.47153125,0.01227036,-0.01227036,0.47153125,-25.76357,-43.958039)"
         style="stroke-width:2.17714"
         inkscape:transform-center-x="0.3819355"
         inkscape:transform-center-y="-0.13289135"><g
           id="g4"
           transform="matrix(0.4129402,0,0,0.4129402,-19.571388,61.682607)"
           style="stroke-width:5.27232"><g
             id="g12"
             transform="matrix(0.47661731,0,0,0.47661731,159.0364,92.333309)"
             style="stroke-width:11.0619"><path
               style="fill:#fecf45;stroke-width:11.0619"
               d="m 112.70867,146.44806 c -1.16416,-0.21692 -3.12869,-0.70027 -4.36562,-1.07412 -1.23693,-0.37385 -3.06188,-1.10489 -4.05545,-1.62452 -0.99357,-0.51963 -2.34122,-1.46449 -2.99479,-2.09968 -0.65357,-0.6352 -1.50752,-1.83598 -1.89768,-2.66841 -0.70937,-1.51351 -0.70937,-1.51351 -0.70937,-12.49371 0,-10.87267 0.006,-10.9951 0.61399,-12.50068 0.34583,-0.8564 1.19267,-2.15363 1.93895,-2.97018 0.8664,-0.94799 1.93361,-1.74952 3.08366,-2.31599 1.75871,-0.86627 1.75871,-0.86627 14.06834,-1.01558 8.92878,-0.1083 12.60031,-0.24252 13.36797,-0.48872 0.58209,-0.18668 1.74667,-0.70361 2.58796,-1.14874 0.86342,-0.45683 2.18864,-1.51554 3.04271,-2.4308 0.8322,-0.89181 1.8267,-2.27223 2.21001,-3.06758 0.38331,-0.795358 0.8298,-2.077042 0.99219,-2.848189 0.16239,-0.771147 0.29526,-3.552627 0.29526,-6.181066 0,-4.77898 0,-4.77898 4.69635,-4.649015 2.583,0.07148 5.1347,0.2667 5.67045,0.433819 0.53575,0.16712 1.54779,0.699061 2.24896,1.182092 0.71775,0.494448 1.75024,1.587479 2.36267,2.501216 0.5983,0.892637 1.39348,2.54791 1.76706,3.678383 0.37359,1.130474 0.93706,3.246031 1.25216,4.70124 0.37756,1.74365 0.62018,4.00947 0.71155,6.64496 0.10731,3.09538 0.0408,4.48207 -0.29437,6.13613 -0.23816,1.17535 -0.74183,3.06668 -1.11927,4.20295 -0.37745,1.13628 -1.16163,2.98722 -1.74265,4.1132 -0.58101,1.12598 -1.53128,2.53659 -2.11172,3.13469 -0.58044,0.5981 -1.60973,1.34372 -2.28733,1.65693 -1.21265,0.56053 -1.48638,0.57063 -17.43771,0.64341 -16.20573,0.0739 -16.20573,0.0739 -16.20573,1.25678 0,1.18282 0,1.18282 9.92187,1.18282 9.92188,0 9.92188,0 9.92188,4.72024 0,4.72024 0,4.72024 -0.81184,6.34486 -0.4465,0.89354 -1.28538,2.02996 -1.86416,2.52538 -0.57878,0.49541 -1.75826,1.27701 -2.62106,1.73688 -0.8628,0.45986 -2.25634,1.074 -3.09677,1.36473 -0.84043,0.29074 -2.59961,0.77909 -3.9093,1.08522 -1.78277,0.41671 -3.47847,0.57781 -6.74687,0.64102 -3.06867,0.0593 -4.99446,-0.0328 -6.4823,-0.30997 z m 19.30169,-6.75545 c 0.53758,-0.472 1.04346,-1.23348 1.19615,-1.80053 0.17105,-0.63524 0.17519,-1.29432 0.0117,-1.86437 -0.13908,-0.48497 -0.46457,-1.11567 -0.72329,-1.40156 -0.25873,-0.28588 -0.7922,-0.6862 -1.1855,-0.88958 -0.3933,-0.20338 -1.14364,-0.36979 -1.66741,-0.36979 -0.52378,0 -1.30886,0.18438 -1.74463,0.40972 -0.43578,0.22535 -1.02473,0.7909 -1.30879,1.25677 -0.28729,0.47117 -0.51519,1.31669 -0.51357,1.90539 0.002,0.58208 0.15172,1.35241 0.3336,1.71185 0.18187,0.35943 0.73351,0.92498 1.22585,1.25677 0.6241,0.42058 1.28112,0.60325 2.16975,0.60325 1.04729,0 1.44071,-0.14586 2.20614,-0.81792 z"
               id="path4"
               sodipodi:nodetypes="ssssssssssssssssssssssssssssssssssssssssssssssscssss" /><path
               style="fill:#3570a1;stroke-width:11.0619"
               d="m 86.628521,125.59667 c -0.665125,-0.17934 -1.754678,-0.64567 -2.421229,-1.03629 -0.666551,-0.39063 -1.704126,-1.26942 -2.305722,-1.95286 -0.601596,-0.68345 -1.437608,-1.96526 -1.857804,-2.84846 -0.420196,-0.8832 -1.006126,-2.55831 -1.302065,-3.72248 -0.295939,-1.16417 -0.72138,-3.24776 -0.945424,-4.63021 -0.224043,-1.38245 -0.407351,-3.64463 -0.407351,-5.02708 0,-1.38245 0.181296,-3.64464 0.402881,-5.02709 0.221585,-1.382443 0.64448,-3.402325 0.939766,-4.488622 0.295287,-1.086297 0.916467,-2.687255 1.380402,-3.557685 0.463935,-0.870431 1.40813,-2.147214 2.098213,-2.837297 0.711833,-0.711832 2.086233,-1.659978 3.17659,-2.191406 1.062807,-0.518001 2.690642,-1.056588 3.641687,-1.204891 0.997879,-0.155607 7.52286,-0.269019 15.544275,-0.270179 13.82448,-0.002 13.82448,-0.002 13.82448,-1.192624 0,-1.190625 0,-1.190625 -9.95277,-1.190625 -9.95277,0 -9.95277,0 -9.82447,-5.22552 0.10064,-4.098943 0.22952,-5.504603 0.59779,-6.520018 0.25821,-0.711973 0.92381,-1.74883 1.47911,-2.304126 0.5553,-0.555296 1.50812,-1.263942 2.11739,-1.574768 0.60927,-0.310827 2.19179,-0.840037 3.51671,-1.176022 1.32492,-0.335986 3.82801,-0.757106 5.56243,-0.935822 1.99123,-0.205179 5.11173,-0.272667 8.46667,-0.18311 3.12428,0.0834 6.29419,0.319741 7.69443,0.573681 1.30969,0.237519 3.1264,0.778877 4.03715,1.203017 0.91075,0.424141 2.32268,1.401781 3.13764,2.172533 0.81496,0.770753 1.79621,1.996924 2.18056,2.724824 0.69881,1.323457 0.69881,1.323457 0.69881,13.097415 0,11.773958 0,11.773958 -0.70648,13.281156 -0.38857,0.828959 -1.25814,2.058849 -1.93239,2.733099 -0.67424,0.67424 -1.86594,1.51892 -2.64822,1.87706 -0.78228,0.35814 -2.11537,0.76467 -2.96241,0.90339 -0.84704,0.13873 -6.4298,0.25292 -12.40612,0.25376 -9.16112,0.001 -11.09152,0.0677 -12.30313,0.42314 -0.79039,0.23188 -2.03345,0.75997 -2.76234,1.17353 -0.72889,0.41357 -1.95642,1.38471 -2.72784,2.15809 -0.84563,0.84777 -1.79029,2.18827 -2.378913,3.37573 -0.97632,1.96958 -0.97632,1.96958 -1.064832,7.73906 -0.08851,5.76948 -0.08851,5.76948 -4.233333,5.75163 -2.393956,-0.0103 -4.655666,-0.1556 -5.354141,-0.34393 z M 109.34787,78.960964 c 0.33437,-0.215422 0.84701,-0.772161 1.13921,-1.237197 0.39782,-0.633141 0.50388,-1.163368 0.42225,-2.110925 -0.0744,-0.863214 -0.31031,-1.480887 -0.74233,-1.943369 -0.34833,-0.372879 -0.95484,-0.845244 -1.34779,-1.049699 -0.39296,-0.204455 -1.10733,-0.371291 -1.5875,-0.370747 -0.48017,5.44e-4 -1.26108,0.237581 -1.73535,0.526749 -0.47427,0.289167 -1.10588,0.9138 -1.40356,1.388073 -0.39514,0.62953 -0.51052,1.164841 -0.42739,1.982976 0.0626,0.616364 0.31655,1.430013 0.56429,1.808108 0.24774,0.378096 0.94717,0.917047 1.55429,1.19767 0.75036,0.346833 1.4004,0.460558 2.02989,0.355131 0.50932,-0.0853 1.19962,-0.331347 1.53399,-0.54677 z"
               id="path3"
               sodipodi:nodetypes="sssssssssssssssssssssssssssssssssssssssssscssssscssss" /></g></g></g><text
         xml:space="preserve"
         style="font-style:normal;font-variant:normal;font-weight:normal;font-stretch:normal;font-size:12.1567px;line-height:1.2;font-family:'Bebas Neue';-inkscape-font-specification:'Bebas Neue';text-decoration-color:#000000;letter-spacing:0px;word-spacing:0px;fill:#3570a1;fill-opacity:1;stroke:none;stroke-width:0.27214;stroke-linecap:round;stroke-dasharray:none;stroke-opacity:1"
         x="15.823537"
         y="15.675414"
         id="text65"
         transform="scale(1.1457887,0.87276126)"><tspan
           sodipodi:role="line"
           id="tspan65"
           style="font-style:normal;font-variant:normal;font-weight:normal;font-stretch:normal;font-family:'Bebas Neue';-inkscape-font-specification:'Bebas Neue';letter-spacing:0px;fill:#3570a1;fill-opacity:1;stroke-width:0.27214"
           x="15.823537"
           y="15.675414">PY AHP</tspan></text><circle
         style="fill:#3570a1;fill-opacity:1;stroke:none;stroke-width:0.27214;stroke-linecap:round"
         id="path2"
         cx="29.559435"
         cy="9.9674187"
         r="1.0160117" /><text
         xml:space="preserve"
         style="font-style:normal;font-variant:normal;font-weight:normal;font-stretch:normal;font-size:2.75122px;line-height:1.2;font-family:'Rage Italic';-inkscape-font-specification:'Rage Italic, ';text-decoration-color:#000000;letter-spacing:0px;word-spacing:0px;fill:#3570a1;fill-opacity:1;stroke:none;stroke-width:0.272138;stroke-linecap:round"
         x="27.05213"
         y="16.715727"
         id="text2"
         transform="scale(1.0133056,0.98686911)"><tspan
           sodipodi:role="line"
           id="tspan2"
           style="font-style:normal;font-variant:normal;font-weight:normal;font-stretch:normal;font-family:'Rage Italic';-inkscape-font-specification:'Rage Italic, ';stroke-width:0.272141"
           x="27.05213"
           y="16.715727">By: Julián Giraldo</tspan></text></g></g></svg>
